HIERARCHY
ROOT Hips
{
	OFFSET 305.588898 92.559578 -272.186401
	CHANNELS 6 Xposition Yposition Zposition Zrotation Yrotation Xrotation 
	JOINT LeftUpLeg
	{
		OFFSET 0.103462 1.857825 10.548491
		CHANNELS 3 Zrotation Yrotation Xrotation
		JOINT LeftLeg
		{
			OFFSET 43.500000 -0.000038 -0.000006
			CHANNELS 3 Zrotation Yrotation Xrotation
			JOINT LeftFoot
			{
				OFFSET 42.372196 0.000034 -0.000012
				CHANNELS 3 Zrotation Yrotation Xrotation
				JOINT LeftToe
				{
					OFFSET 17.299999 -0.000001 -0.000008
					CHANNELS 3 Zrotation Yrotation Xrotation
					End Site
					{
						OFFSET 0.000000 0.000000 0.000000
					}
				}
			}
		}
	}
	JOINT RightUpLeg
	{
		OFFSET 0.103456 1.857821 -10.548490
		CHANNELS 3 Zrotation Yrotation Xrotation
		JOINT RightLeg
		{
			OFFSET 43.500038 -0.000011 0.000011
			CHANNELS 3 Zrotation Yrotation Xrotation
			JOINT RightFoot
			{
				OFFSET 42.372265 0.000004 0.000029
				CHANNELS 3 Zrotation Yrotation Xrotation
				JOINT RightToe
				{
					OFFSET 17.299988 -0.000007 0.000004
					CHANNELS 3 Zrotation Yrotation Xrotation
					End Site
					{
						OFFSET 0.000000 0.000000 0.000000
					}
				}
			}
		}
	}
	JOINT Spine
	{
		OFFSET 6.901963 -2.603729 -0.000012
		CHANNELS 3 Zrotation Yrotation Xrotation
		JOINT Spine1
		{
			OFFSET 12.588106 0.000010 0.000003
			CHANNELS 3 Zrotation Yrotation Xrotation
			JOINT Spine2
			{
				OFFSET 12.343199 -0.000001 -0.000002
				CHANNELS 3 Zrotation Yrotation Xrotation
				JOINT Neck
				{
					OFFSET 25.832895 -0.000006 0.000023
					CHANNELS 3 Zrotation Yrotation Xrotation
					JOINT Head
					{
						OFFSET 11.766605 0.000011 -0.000027
						CHANNELS 3 Zrotation Yrotation Xrotation
						End Site
						{
							OFFSET 0.000000 0.000000 0.000000
						}
					}
				}
				JOINT LeftShoulder
				{
					OFFSET 19.745903 -1.480368 6.000127
					CHANNELS 3 Zrotation Yrotation Xrotation
					JOINT LeftArm
					{
						OFFSET 11.284108 0.000010 -0.000010
						CHANNELS 3 Zrotation Yrotation Xrotation
						JOINT LeftForeArm
						{
							OFFSET 33.000069 0.000000 0.000030
							CHANNELS 3 Zrotation Yrotation Xrotation
							JOINT LeftHand
							{
								OFFSET 25.199997 0.000019 0.000001
								CHANNELS 3 Zrotation Yrotation Xrotation
								End Site
								{
									OFFSET 0.000000 0.000000 0.000000
								}
							}
						}
					}
				}
				JOINT RightShoulder
				{
					OFFSET 19.746101 -1.480371 -6.000072
					CHANNELS 3 Zrotation Yrotation Xrotation
					JOINT RightArm
					{
						OFFSET 11.284140 -0.000007 -0.000004
						CHANNELS 3 Zrotation Yrotation Xrotation
						JOINT RightForeArm
						{
							OFFSET 33.000080 0.000016 -0.000002
							CHANNELS 3 Zrotation Yrotation Xrotation
							JOINT RightHand
							{
								OFFSET 25.199766 0.000146 0.000422
								CHANNELS 3 Zrotation Yrotation Xrotation
								End Site
								{
									OFFSET 0.000000 0.000000 0.000000
								}
							}
						}
					}
				}
			}
		}
	}
}
MOTION
Frames: 12
Frame Time: 0.033333
361.452087 83.772583 -153.338196 106.115397 10.354326 -33.318998 133.541523 -0.646699 -179.680065 -56.603079 -3.160215 -2.033959 95.225814 1.470814 0.217334 21.454551 0.003088 -0.000001 134.003735 -0.408201 -174.900053 -56.240898 0.580946 1.982720 96.983584 -1.477115 -1.381705 21.454558 -0.003108 -0.000018 11.276893 -0.197770 0.886752 12.537298 -0.490604 1.746788 12.219349 -0.479907 1.749723 2.524823 -8.100843 -4.849614 -24.319368 14.411732 -12.685191 -179.798501 -78.151373 -1.735282 -25.816599 59.487860 7.820123 -35.203922 -16.966265 1.466924 9.543981 -1.824059 32.913309 -171.032486 74.801903 10.612643 -16.168516 -60.316110 -12.525453 -43.357109 18.254297 -1.791381 4.679181 6.797244 -12.739398 
360.470612 81.174057 -153.749893 105.833706 10.650060 -33.378899 131.035335 -0.076997 179.187964 -63.468727 -2.283972 -1.963973 98.905722 1.381923 0.214634 21.454551 0.003095 -0.000000 131.303215 -0.096698 -175.051929 -63.470721 -0.053831 2.245548 101.147302 -1.527939 -0.672583 21.454557 -0.003104 -0.000017 11.535788 -0.184326 0.836774 13.055520 -0.462040 1.647336 12.737550 -0.451944 1.650101 3.839007 -7.991325 -5.128083 -25.016516 14.049271 -12.820912 175.608999 -78.513516 2.931683 -30.004669 58.885192 5.959375 -32.640292 -16.821014 1.400364 10.089676 -1.039564 32.507254 -171.980407 74.965636 9.642790 -19.393697 -59.373735 -9.642119 -43.986288 18.361743 -1.816803 4.280106 7.252826 -13.145062 
359.087799 78.409233 -154.376495 105.067004 10.563590 -33.930969 129.664270 0.214606 178.337974 -70.184845 -1.786224 -2.152653 102.750395 1.465023 -0.017349 21.454555 0.003097 0.000000 129.672931 -0.225798 -175.463694 -70.442692 -0.761850 2.619535 105.027409 -1.694836 0.182155 21.454557 -0.003106 -0.000017 11.711830 -0.175557 0.913883 13.407335 -0.455990 1.801196 13.089406 -0.444969 1.803921 5.745556 -8.148189 -5.348535 -26.345841 14.491413 -13.363899 173.294699 -78.026797 5.299434 -34.485079 57.521763 2.961434 -30.453054 -15.629891 1.278939 11.697367 -1.346238 32.884554 -174.985198 74.817291 6.565773 -21.291071 -58.191593 -7.480066 -44.732879 18.647540 -1.857753 4.066814 7.863308 -14.501842 
357.421295 75.689522 -155.254700 103.794697 10.076760 -34.436694 129.479363 0.612902 177.217837 -76.437241 -0.843922 -2.374812 105.904692 1.571088 -0.484950 21.454553 0.003091 -0.000000 129.228996 -0.441894 -175.720331 -76.998874 -1.558216 3.100152 108.084294 -1.977183 1.058538 21.454555 -0.003114 -0.000018 11.847853 -0.165582 0.992272 13.679119 -0.447479 1.957927 13.361224 -0.435513 1.960601 6.554676 -8.021856 -5.595245 -26.784532 14.263520 -13.518859 171.564598 -77.285981 7.082684 -38.347137 55.805313 0.085544 -29.577154 -15.465336 1.251409 13.539143 1.058152 38.232739 -178.655592 74.104629 2.797815 -22.373282 -56.498461 -5.544610 -45.612580 18.603052 -1.881347 3.103209 8.928576 -16.638853 
355.577911 73.293221 -156.333405 102.621413 9.653567 -34.634977 129.841131 0.884200 176.230246 -81.785177 -0.240442 -2.384855 107.927009 1.563683 -0.779744 21.454553 0.003091 -0.000001 129.434093 -0.554090 -175.956793 -82.600189 -2.185061 3.612158 110.285698 -2.319386 1.897174 21.454560 -0.003108 -0.000017 11.842332 -0.134553 1.003941 13.668564 -0.386957 1.984875 13.350673 -0.374832 1.987185 5.884562 -8.123517 -5.608367 -27.246690 13.995078 -13.538742 170.269198 -77.116667 8.407881 -41.393378 54.556840 -2.639667 -31.258029 -15.820281 1.307255 13.956520 2.980027 45.954254 178.853817 73.533257 0.235052 -23.480124 -54.942260 -2.674442 -48.128808 18.810800 -1.973624 2.613457 7.990454 -19.213022 
353.649994 71.343590 -157.599304 101.698696 8.955052 -34.418508 130.850428 0.893404 175.427549 -86.038015 0.477303 -2.190641 109.237906 1.422336 -0.903415 21.454557 0.003094 0.000000 130.459741 -0.571104 -175.756791 -86.972897 -2.562577 3.907015 111.533704 -2.530955 2.450447 21.454560 -0.003112 -0.000017 11.715630 -0.000757 0.938002 13.417517 -0.110446 1.869512 13.099599 -0.099017 1.870156 4.467604 -8.743141 -5.265112 -27.871256 14.412269 -13.664301 170.632414 -77.064697 8.039440 -42.611778 53.283030 -4.257749 -37.105348 -17.253423 1.530902 12.574338 2.138052 52.177403 177.739691 73.027768 -0.917889 -24.757619 -53.223587 0.202555 -52.621905 18.930899 -2.131105 -0.068063 10.341668 -22.312910 
351.587311 70.378563 -159.017502 100.736391 8.611317 -34.251852 132.872560 0.754105 174.250311 -88.132656 1.108984 -1.726496 109.126301 1.099649 -0.879019 21.454553 0.003089 0.000002 132.463377 -0.233405 -175.716411 -89.270006 -2.823987 3.846278 111.703297 -2.490555 2.641618 21.454562 -0.003100 -0.000017 11.514930 0.017013 0.834350 13.016583 -0.060099 1.665271 12.698641 -0.049914 1.665611 2.255274 -9.076465 -5.068595 -28.489612 14.150079 -13.652330 170.277285 -76.630638 8.415316 -40.306302 51.114475 -4.973468 -48.247613 -18.500467 1.927298 7.201564 -2.963317 54.046044 176.067483 72.535871 -2.645125 -24.324363 -51.699956 5.137737 -62.260781 17.722283 -2.403848 -0.218759 10.159889 -25.724895 
349.283386 70.644218 -160.658905 100.328102 8.310780 -34.132982 136.360957 0.359203 174.717987 -86.892034 0.447713 -0.943508 109.614188 0.612743 -1.287223 21.454553 0.003096 0.000001 136.046071 -0.181594 -176.192502 -88.019664 -2.244663 3.889341 112.478606 -2.559780 2.731788 21.454555 -0.003116 -0.000017 11.165370 0.027208 0.768120 12.317703 -0.027645 1.534726 11.999737 -0.018245 1.534872 -1.036523 -9.758447 -4.251768 -27.733449 14.918919 -13.433760 170.988281 -76.927376 7.681014 -37.110583 50.150603 -10.942045 -65.396097 -17.089890 2.450216 3.725215 -4.964351 56.819562 175.630514 72.182341 -3.102369 -22.134743 -50.811406 12.733239 -77.322256 12.627323 -2.671988 -4.271865 9.277067 -33.174208 
346.636688 72.100937 -162.674805 100.593496 8.338593 -33.873329 141.037724 0.039200 174.799581 -82.272477 0.308453 -0.460726 110.346494 0.309587 -1.501499 21.454557 0.003095 0.000001 141.155162 -0.124097 -175.507762 -82.857230 -2.390576 3.782884 114.334812 -2.517196 2.543968 21.454558 -0.003111 -0.000021 10.427118 0.021063 0.651630 10.841296 -0.019100 1.302334 10.523284 -0.011104 1.302439 -2.585453 -9.339536 -4.501042 -26.796437 13.901969 -13.093218 171.372014 -78.039262 7.255957 -31.712797 52.125770 -23.353592 -86.228474 -8.338432 2.721793 2.794800 -1.427646 58.454378 177.607007 72.690917 -1.061184 -19.118482 -51.056887 23.363827 -93.283391 2.434047 -2.663869 -6.161845 7.137341 -38.917277 
342.667206 75.301041 -165.358307 100.063009 7.822949 -34.635271 149.700876 0.040697 174.518068 -72.740955 0.188396 -0.796311 109.014901 0.522914 -1.407350 21.454550 0.003093 -0.000000 149.205496 0.286411 -175.242642 -74.001821 -2.012766 2.625481 111.350300 -1.709724 1.881849 21.454553 -0.003110 -0.000017 9.513056 0.008508 0.729485 9.013035 -0.039855 1.457379 8.695041 -0.030914 1.457605 -1.604895 -9.679079 -4.786802 -22.565195 14.679432 -13.036291 175.614696 -78.462932 2.927109 -24.368418 55.412959 -26.789260 -102.197402 -2.222549 3.002248 1.205446 -3.213184 54.423781 178.504617 73.222476 -0.129198 -13.572330 -51.307234 24.700162 -104.275986 -0.377877 -2.958902 -9.145743 7.065540 -38.095623 
337.730103 80.005127 -168.718002 99.439659 7.612202 -35.772590 158.179654 0.460003 175.412495 -62.009286 -0.924520 -1.395285 96.292526 0.878331 -0.940904 21.454553 0.003091 0.000001 157.686747 1.604208 -174.940570 -63.042462 -1.070559 0.360859 100.425699 -0.215289 -0.005232 21.454563 -0.003107 -0.000019 8.300223 -0.037800 0.965766 6.586504 -0.130366 1.927800 6.268607 -0.118585 1.928563 1.455006 -8.654429 -5.388002 -16.678166 14.511280 -12.236558 -173.126034 -78.611263 -8.533713 -16.248358 57.857761 -21.809397 -111.995698 -0.470890 3.306800 1.902086 -4.260279 46.084663 -176.594391 75.070992 4.921487 -6.173542 -53.920221 22.022716 -109.645402 -1.600188 -3.110166 -11.890918 11.347205 -34.199215 
332.306000 85.393707 -172.297699 98.018351 5.578316 -36.004263 166.387861 0.126909 176.636301 -53.052808 -1.090496 -1.555976 76.470279 0.342463 -2.874276 21.454551 0.003086 0.000001 166.474181 2.578097 -173.958348 -53.387497 0.376491 -1.632168 81.033057 0.911707 -0.904668 21.454550 -0.003109 -0.000018 7.727743 0.204013 1.107702 5.446110 0.355934 2.223719 5.128271 0.369487 2.221538 5.320186 -8.720301 -6.163395 -13.715185 14.813432 -12.426401 -162.184399 -77.774647 -19.679735 -8.864257 57.628505 -14.711999 -116.874304 0.098084 3.472707 2.391871 -3.442990 46.342806 -170.801202 75.965009 10.852432 1.236504 -55.307289 19.176837 -112.168406 -2.173399 -3.179799 -11.415710 14.417286 -30.164205 
